<?xml version="1.0" encoding="UTF-8"?><svg id="z-auth-att-logo" xmlns="http://www.w3.org/2000/svg" version="1.1" viewBox="0 0 512 512"><path style="fill:#ffffff" d="M256,0C114.8,0,0,114.8,0,256s114.8,256,256,256,256-114.8,256-256S397.2,0,256,0ZM256,87.5c3.1,0,6.1.6,8.8,1.9l124.6,52.9c14.5,6.2,25.4,20.5,25.4,37.8-.4,65.7-27.4,185.8-141.4,240.4-11.1,5.3-23.9,5.3-34.9,0-114-54.6-141-174.7-141.4-240.4,0-17.3,10.8-31.7,25.4-37.8l124.7-52.9c2.7-1.2,5.7-1.9,8.8-1.9h0ZM352,264.4l-81.7,81.7c-8,8-21,8-28.9,0l-81.7-81.7c-8-8-8-21,0-28.9s21-8,28.9,0l46.8,46.8v-114c0-11.4,9.1-20.4,20.4-20.4s20.4,9.1,20.4,20.4v114l46.8-46.8c8-8,21-8,28.9,0s8,21,0,28.9h0Z"/></svg>